<?xml version="1.0" encoding="utf-8"?>
<!-- Generator: Adobe Illustrator 23.0.6, SVG Export Plug-In . SVG Version: 6.00 Build 0)  -->
<svg version="1.1" id="Layer_1" xmlns="http://www.w3.org/2000/svg" xmlns:xlink="http://www.w3.org/1999/xlink" x="0px" y="0px"
	 viewBox="0 0 200 200" style="enable-background:new 0 0 200 200;" xml:space="preserve">
<g>
	<path d="M88.52,65.93c-1.56-3.14-3.01-6.05-4.46-8.96c-3.39-6.81-6.79-13.63-10.16-20.45c-0.83-1.67-0.51-3.14,0.81-3.97
		c1.54-0.98,3.22-0.44,4.15,1.4c2.07,4.1,4.1,8.22,6.15,12.34c2.87,5.77,5.75,11.54,8.63,17.32c0.13,0.26,0.29,0.51,0.5,0.89
		c0.28-0.43,0.52-0.77,0.72-1.12c8.78-14.8,17.56-29.59,26.33-44.39c0.99-1.67,2.54-2.2,4.01-1.35c1.43,0.83,1.77,2.5,0.8,4.14
		c-8.44,14.25-16.89,28.49-25.33,42.73c-0.23,0.39-0.44,0.8-0.79,1.42c0.73,0,1.27,0,1.81,0c22.41,0,44.82-0.01,67.23,0
		c6.27,0,11.14,3.63,12.62,9.41c0.27,1.07,0.38,2.21,0.38,3.32c0.02,30.47,0.02,60.94,0.01,91.4c0,7.34-5.4,12.68-12.74,12.68
		c-46.11,0-92.22,0-138.33,0c-7.34,0-12.74-5.35-12.75-12.68c-0.01-30.47-0.01-60.94,0-91.4c0-7.35,5.4-12.71,12.88-12.73
		c10.56-0.03,21.12-0.01,31.67-0.01c8.06,0,16.12,0,24.18,0C87.29,65.93,87.76,65.93,88.52,65.93z M84.56,169.08
		c16.16,0,32.31,0,48.47-0.01c0.81,0,1.65,0.01,2.43-0.18c3.7-0.87,5.81-3.75,5.81-7.92c0.01-24.34,0.01-48.69,0-73.03
		c0-5.31-3.05-8.34-8.33-8.34c-32.23,0-64.45,0-96.68,0c-5.22,0-8.31,3.02-8.31,8.22c-0.01,24.39,0.02,48.77-0.03,73.16
		c-0.01,5.44,4.14,8.18,8.17,8.14C52.25,169,68.41,169.08,84.56,169.08z M171.49,105.29c0-5.82-4.68-10.48-10.51-10.46
		c-5.75,0.01-10.4,4.64-10.46,10.4c-0.06,5.73,4.72,10.55,10.47,10.56C166.77,115.8,171.49,111.09,171.49,105.29z M160.99,85.23
		c2.11,0,4.22,0.02,6.32-0.01c2-0.03,3.32-1.22,3.26-2.89c-0.06-1.64-1.34-2.72-3.28-2.73c-4.17-0.01-8.34-0.01-12.52,0
		c-2.02,0.01-3.32,1.13-3.31,2.81c0.01,1.69,1.29,2.78,3.34,2.8C156.86,85.25,158.93,85.23,160.99,85.23z M164.66,130.19
		c-0.01-2.08-1.6-3.62-3.69-3.61c-2.08,0.02-3.62,1.59-3.6,3.69c0.02,2.06,1.62,3.64,3.69,3.63
		C163.1,133.89,164.68,132.26,164.66,130.19z M176.05,130.27c0.01-2.1-1.52-3.67-3.61-3.69c-2.1-0.02-3.67,1.53-3.69,3.61
		c-0.01,2.07,1.56,3.69,3.61,3.7C174.44,133.92,176.04,132.33,176.05,130.27z M149.57,133.9c2.05,0.02,3.69-1.58,3.71-3.62
		c0.02-2.08-1.55-3.68-3.62-3.7c-2.09-0.02-3.68,1.53-3.69,3.61C145.96,132.28,147.51,133.88,149.57,133.9z"/>
</g>
</svg>
