<?xml version="1.0" encoding="utf-8"?>
<!-- Generator: Adobe Illustrator 23.0.6, SVG Export Plug-In . SVG Version: 6.00 Build 0)  -->
<svg version="1.1" id="Layer_1" xmlns="http://www.w3.org/2000/svg" xmlns:xlink="http://www.w3.org/1999/xlink" x="0px" y="0px"
	 viewBox="0 0 200 200" style="enable-background:new 0 0 200 200;" xml:space="preserve">
<g>
	<path d="M35.11,168.21c2.3-3.39,4.59-6.79,6.93-10.15c0.22-0.32,0.76-0.44,1.18-0.59c1.44-0.5,2.19-1.77,1.74-3.05
		c-0.47-1.34-1.49-1.81-2.83-1.56c-1.33,0.25-1.98,1.56-1.65,3.09c0.1,0.49,0.32,1.13,0.12,1.49c-1.94,3.47-3.96,6.89-6.18,10.71
		c0.54-3.13,1.13-5.78,1.42-8.45c0.19-1.82-0.13-3.68-0.05-5.52c0.04-0.98,0.18-2.15,0.73-2.89c3.62-4.81,7.4-9.49,11.03-14.29
		c0.48-0.63,0.45-1.67,0.56-2.53c0.05-0.4-0.11-0.82-0.16-1.23c-0.4-3.09,0.46-4.23,3.42-5.01c0.88-0.23,1.82-0.78,2.4-1.46
		c2.5-2.95,4.87-6,7.34-9.08c1.35,1.18,2.62,2.29,3.99,3.49c1.64-2.91,3.08-5.7,4.74-8.34c1.67-2.65,3-5.29,3.88-8.4
		c1.08-3.81,3.07-7.52,5.35-10.8c4.48-6.44,9.43-12.54,14.18-18.79c0.15,0.08,0.3,0.16,0.45,0.24c0,0.71,0,1.42,0,2.5
		c12.36-14.08,25.7-26.67,39.93-38.41c-1.5,2.7-3,5.41-4.49,8.11c0.13,0.11,0.27,0.22,0.4,0.33c1.31-1.38,2.46-2.97,3.95-4.11
		c5.35-4.08,10.8-8.03,16.24-12c2.02-1.47,4.08-2.89,6.16-4.28c0.94-0.63,1.92-1.21,2.95-1.66c3.41-1.49,5.87-0.09,6.51,3.57
		c0.66,3.8-0.09,7.45-0.95,11.11c-1.36,5.86-4.92,10.44-8.85,14.67c-3.19,3.44-6.83,6.46-10.27,9.66c-0.41,0.38-0.85,0.72-1.15,1.26
		c2.07-1.03,4.13-2.06,6.2-3.1c0.15,0.23,0.3,0.46,0.45,0.7c-9.74,7.6-19.49,15.19-29.67,23.13c1.12-0.28,1.8-0.42,2.47-0.62
		c0.73-0.21,1.44-0.48,2.32-0.43c-2.26,1.43-4.51,2.9-6.8,4.29c-10.58,6.44-21.18,12.88-32.62,17.72c-3.09,1.31-6.45,1.97-9.69,2.94
		c-0.39,0.12-0.88,0.17-1.12,0.43c-3.13,3.49-6.22,7.02-9.62,10.87c2.14,0.97,3.88,1.77,5.81,2.64c-0.68,1.3-1.35,2.59-2.05,3.88
		c-1.13,2.1-2.24,4.21-3.45,6.26c-0.63,1.07-0.95,2.04-0.64,3.34c0.37,1.52-0.32,2.7-1.96,3.07c-1.74,0.39-3.48,0.87-5.25,1.02
		c-1.32,0.11-1.84,0.75-2.28,1.82c-1.91,4.68-3.89,9.34-5.77,14.03c-0.48,1.2-1.12,1.87-2.44,2.25c-4.14,1.21-7.58,3.67-10.72,6.56
		c-0.65,0.6-1.3,1.2-1.96,1.8C35.26,168.38,35.18,168.29,35.11,168.21z M153.17,39.43c-0.55,0.31-1.11,0.6-1.63,0.95
		c-20.13,13.27-39.17,27.94-56.62,44.62c-6.16,5.89-12.02,12.08-16.7,19.27c-0.36,0.55-0.66,1.13-0.98,1.7
		C98.81,79.46,126.28,59.82,153.17,39.43z"/>
	<path d="M36.93,169.54c2.59,0.32,5.18,0.62,7.76,0.96c3.56,0.46,6.9-0.16,9.85-2.24c5.24-3.7,11.1-4.7,17.33-4.07
		c6.98,0.7,13.99,1.29,20.92,2.33c4.27,0.65,8.41,2.1,12.62,3.13c8.59,2.09,16.95,1.24,24.93-2.45c5-2.32,10.25-2.94,15.61-3.24
		c0.62-0.03,1.24,0,1.88,0.22c-0.98,0.16-1.96,0.31-2.93,0.47c0,0.08,0,0.15,0,0.23c1.03,0,2.06,0,3.09,0
		c0.01,0.07,0.02,0.14,0.02,0.21c-1.99,0.34-3.98,0.68-5.97,1.01c-1.35,0.22-2.71,0.41-4.05,0.64c-0.29,0.05-0.62,0.1-0.83,0.28
		c-6.02,4.82-13.23,6.52-20.59,7.59c-3.27,0.48-6.69-0.14-9.96,0.31c-3.54,0.49-6.39-1.09-9.34-2.3
		c-5.58-2.29-11.55-2.73-17.34-3.98c-4-0.86-8.07-1.48-12.13-1.94c-3.79-0.42-7.6,0.1-10.86,2.15c-4.95,3.12-10.07,3.6-15.57,1.99
		c-1.47-0.43-3.01-0.62-4.52-0.92C36.88,169.79,36.9,169.67,36.93,169.54z"/>
</g>
</svg>
