<?xml version="1.0" encoding="utf-8"?>
<!-- Generator: Adobe Illustrator 23.0.6, SVG Export Plug-In . SVG Version: 6.00 Build 0)  -->
<svg version="1.1" id="Layer_1" xmlns="http://www.w3.org/2000/svg" xmlns:xlink="http://www.w3.org/1999/xlink" x="0px" y="0px"
	 viewBox="0 0 200 200" style="enable-background:new 0 0 200 200;" xml:space="preserve">
<g>
	<path d="M135.62,136.09c4.59-1.37,9.18-2.75,13.78-4.12c3.12-0.93,6.28-1.46,9.48-0.53c5.22,1.51,7.22,6.59,4.25,11.12
		c-1.01,1.54-2.42,3.07-4.01,3.95c-10.22,5.69-20.45,11.39-30.87,16.69c-6.71,3.41-13.79,6.07-20.67,9.15
		c-6.3,2.82-12.86,3.02-19.58,2.28c-18.6-2.04-36.73-6.33-54.72-11.32c-0.46-0.13-0.92-0.24-1.37-0.4
		c-1.67-0.58-2.41-1.91-1.94-3.46c0.42-1.39,1.82-2.09,3.44-1.68c6.38,1.65,12.73,3.38,19.13,4.94c11.84,2.89,23.79,5.12,35.91,6.56
		c6.87,0.82,13.29-0.15,19.64-2.85c15.93-6.78,31.4-14.48,46.34-23.22c1.27-0.74,2.52-1.63,3.51-2.7c0.6-0.65,1.14-1.95,0.88-2.64
		c-0.26-0.68-1.55-1.31-2.41-1.34c-1.69-0.05-3.47,0.09-5.09,0.57c-10.92,3.27-21.8,6.64-32.68,10.02
		c-0.52,0.16-1.22,0.65-1.31,1.09c-1.11,5.18-3.05,7.1-8.34,7.94c-5.91,0.94-11.75,0.18-17.55-0.91c-3.73-0.7-7.45-1.53-11.1-2.56
		c-0.94-0.27-1.97-1.38-2.29-2.33c-0.22-0.65,0.5-1.97,1.19-2.47c0.64-0.46,1.82-0.45,2.69-0.27c4.02,0.8,7.98,1.85,12.01,2.57
		c4.8,0.85,9.66,1.49,14.54,0.57c1.31-0.24,2.82-0.41,3.3-2c0.47-1.51-0.28-3.55-2.11-4.33c-3.08-1.33-6.3-2.43-9.55-3.23
		c-3.51-0.86-7.2-1.01-10.68-1.95c-2.82-0.76-5.61-1.95-8.12-3.45c-4.86-2.91-9.64-5.86-15.36-6.84c-8.19-1.4-16.11-0.21-23.88,2.37
		c-2.64,0.88-5.19,2.04-7.75,3.13c-1.91,0.82-3.41,0.53-4.15-0.91c-0.79-1.54-0.13-2.96,1.88-3.96c5.02-2.51,10.28-4.36,15.79-5.39
		c1.34-0.25,1.86-0.86,2.1-2.12c0.45-2.33,0.91-4.67,1.59-6.94c0.4-1.33,0.02-2.09-0.95-2.91c-2.58-2.2-5.09-4.48-7.64-6.73
		c-3.2-2.83-3.3-6.67-0.21-9.63c2.49-2.39,4.99-4.78,7.56-7.09c0.92-0.83,1.18-1.56,0.74-2.77c-1.16-3.18-2.2-6.4-3.26-9.61
		c-1.45-4.4,0.32-7.62,4.84-8.74c3.28-0.81,6.58-1.57,9.89-2.3c1.1-0.25,1.68-0.7,1.89-1.95c0.57-3.39,1.35-6.75,2.02-10.13
		c0.85-4.29,4.11-6.3,8.33-5.08c3.36,0.97,6.73,1.93,10.06,3.01c1.09,0.35,1.75,0.14,2.47-0.7c2.28-2.67,4.63-5.28,6.98-7.9
		c2.88-3.21,6.66-3.27,9.64-0.14c2.43,2.54,4.84,5.09,7.2,7.69c0.75,0.82,1.41,0.99,2.48,0.6c3.29-1.19,6.62-2.28,9.95-3.37
		c4.11-1.34,7.36,0.42,8.43,4.63c0.86,3.39,1.62,6.81,2.41,10.22c0.23,0.99,0.58,1.61,1.8,1.81c3.4,0.55,6.75,1.36,10.13,2.03
		c4.42,0.88,6.44,4.11,5.2,8.41c-0.96,3.31-1.89,6.62-2.96,9.89c-0.37,1.14-0.21,1.84,0.71,2.62c2.68,2.27,5.29,4.62,7.9,6.97
		c3.17,2.86,3.19,6.7,0.07,9.66c-2.55,2.42-5.1,4.83-7.7,7.2c-0.76,0.69-0.96,1.3-0.59,2.32c1.19,3.29,2.26,6.63,3.36,9.95
		c1.45,4.4-0.59,7.8-5.15,8.7c-2.97,0.59-5.95,1.13-8.88,1.9c-1.08,0.28-2,1.16-2.99,1.76C135.38,135.66,135.5,135.87,135.62,136.09
		z M55.35,122.51c4.72,0.54,9.29,0.81,13.75,1.64c5.46,1.01,10.08,4.04,14.77,6.89c2.23,1.36,4.79,2.35,7.32,2.99
		c3.73,0.94,7.61,1.29,11.38,2.1c4.54,0.98,9.03,2.14,12.45,5.68c0.31,0.32,1.21,0.29,1.74,0.13c3.92-1.17,7.81-2.45,11.74-3.61
		c0.95-0.28,1.27-0.65,1.34-1.69c0.25-4.14,2.77-7.13,6.77-8.11c3.05-0.75,6.12-1.47,9.22-2c1.58-0.27,1.66-0.91,1.21-2.18
		c-1.13-3.19-2.13-6.42-3.28-9.6c-1.11-3.05-0.45-5.56,1.92-7.73c2.5-2.29,4.9-4.69,7.43-6.96c1.1-0.98,1.03-1.63-0.06-2.55
		c-2.64-2.23-5.18-4.56-7.79-6.82c-2.27-1.96-2.97-4.34-2.1-7.21c1.02-3.35,1.94-6.73,3.03-10.05c0.46-1.4,0.12-1.9-1.3-2.14
		c-3.33-0.58-6.63-1.36-9.95-1.98c-3.07-0.57-4.99-2.26-5.69-5.36c-0.75-3.36-1.69-6.68-2.36-10.05c-0.33-1.64-1.02-1.69-2.35-1.22
		c-3.24,1.16-6.51,2.23-9.78,3.33c-2.75,0.93-5.14,0.4-7.15-1.75c-2.4-2.57-4.86-5.07-7.22-7.68c-0.95-1.05-1.6-1.13-2.55,0
		c-2.22,2.64-4.55,5.19-6.81,7.8c-1.96,2.27-4.34,2.98-7.21,2.12c-3.41-1.02-6.84-1.98-10.23-3.06c-1.21-0.39-1.72-0.18-1.96,1.11
		c-0.61,3.33-1.42,6.62-1.99,9.95c-0.57,3.33-2.38,5.29-5.69,6c-3.31,0.71-6.57,1.61-9.88,2.3c-1.37,0.29-1.63,0.86-1.19,2.1
		c1.17,3.3,2.25,6.63,3.4,9.94c0.98,2.83,0.4,5.24-1.79,7.29c-2.61,2.44-5.17,4.93-7.8,7.35c-0.87,0.8-0.89,1.38,0.02,2.16
		c2.66,2.29,5.25,4.66,7.92,6.95c2.22,1.9,2.96,4.2,2.27,7.02C56.36,117.98,55.84,120.35,55.35,122.51z"/>
	<path d="M96.24,31.62c0-1.31-0.08-2.62,0.02-3.92c0.12-1.66,1.31-2.8,2.75-2.68c1.59,0.13,2.53,1.1,2.58,2.67
		c0.08,2.61,0.1,5.24,0,7.85c-0.07,1.7-1.26,2.77-2.74,2.67c-1.62-0.11-2.48-1.09-2.59-2.65C96.16,34.24,96.24,32.92,96.24,31.62z"
		/>
	<path d="M154.3,69.35c-0.52-0.46-1.69-1.02-1.9-1.83c-0.23-0.89,0.08-2.48,0.74-2.95c2.35-1.68,4.9-3.11,7.49-4.42
		c1.21-0.61,2.47-0.14,3.23,1.09c0.72,1.17,0.64,2.52-0.42,3.22c-2.62,1.71-5.4,3.17-8.13,4.72
		C155.17,69.26,154.97,69.24,154.3,69.35z"/>
	<path d="M36.94,61.54c0.91,0.31,1.38,0.4,1.78,0.62c2.22,1.25,4.45,2.49,6.62,3.82c1.52,0.93,1.92,2.5,1.1,3.81
		c-0.84,1.36-2.28,1.7-3.88,0.8c-2.22-1.24-4.44-2.51-6.6-3.86c-1.09-0.68-1.73-1.82-1.07-3.04C35.36,62.81,36.3,62.18,36.94,61.54z
		"/>
	<path d="M38.18,120.55c-0.67-0.74-1.7-1.43-2.07-2.38c-0.5-1.28,0.12-2.59,1.48-3.02c2.71-0.86,5.46-1.61,8.23-2.21
		c1.37-0.3,2.41,0.49,2.86,1.85c0.44,1.32,0,2.59-1.18,3.01C44.62,118.83,41.62,119.56,38.18,120.55z"/>
	<path d="M131.51,46.18c-2.39,0.06-3.84-1.87-2.95-3.62c1.28-2.53,2.73-4.98,4.26-7.37c0.81-1.27,2.16-1.44,3.46-0.72
		c1.35,0.75,1.71,2.1,1.05,3.37c-1.29,2.52-2.76,4.97-4.28,7.36C132.7,45.76,131.82,45.99,131.51,46.18z"/>
	<path d="M66.54,47.25c-0.38-0.3-1.33-0.75-1.82-1.51c-1.34-2.03-2.51-4.18-3.68-6.31c-0.87-1.58-0.51-3.14,0.8-3.9
		c1.33-0.78,2.91-0.35,3.82,1.15c1.29,2.13,2.56,4.29,3.73,6.49C70.45,45.2,69.27,47.25,66.54,47.25z"/>
	<path d="M32.28,97.82c1.24,0,2.49-0.04,3.73,0.01c1.66,0.06,2.79,1.13,2.83,2.59c0.04,1.41-1.11,2.7-2.7,2.76
		c-2.6,0.09-5.21,0.09-7.82,0c-1.67-0.05-2.68-1.2-2.67-2.72c0.01-1.53,1.04-2.56,2.73-2.62C29.68,97.78,30.98,97.82,32.28,97.82z"
		/>
	<path d="M167.84,95.69c1.3,0,2.61-0.04,3.91,0.01c1.51,0.06,2.42,0.87,2.59,2.38c0.16,1.46-0.75,2.81-2.25,2.89
		c-2.83,0.15-5.69,0.14-8.52,0.01c-1.47-0.07-2.58-1.52-2.38-2.83c0.23-1.52,1.1-2.46,2.75-2.47
		C165.23,95.69,166.53,95.69,167.84,95.69z"/>
	<path d="M62.76,61.1c-0.44,0.6-0.83,1.65-1.54,1.96c-0.78,0.34-2.18,0.4-2.75-0.09c-2.07-1.76-3.99-3.73-5.8-5.77
		c-0.89-1-0.61-2.28,0.32-3.23c0.93-0.96,2.24-1.26,3.22-0.4c2.09,1.83,4,3.87,5.94,5.86C62.45,59.74,62.48,60.3,62.76,61.1z"/>
	<path d="M87.21,45.33c-0.01,1.95-0.68,2.93-2.08,3.21c-1.37,0.27-2.56-0.19-3-1.58c-0.78-2.48-1.52-4.98-2.04-7.53
		c-0.28-1.35,0.56-2.4,1.92-2.82c1.41-0.44,2.63,0.11,3.08,1.38C86,40.55,86.61,43.2,87.21,45.33z"/>
	<path d="M117.91,39.03c-0.68,2.35-1.34,5.06-2.27,7.66c-0.43,1.2-1.64,1.65-2.97,1.27c-1.3-0.37-2.18-1.3-1.92-2.6
		c0.56-2.71,1.27-5.4,2.14-8.02c0.42-1.26,1.72-1.6,2.99-1.27C117.18,36.41,117.81,37.36,117.91,39.03z"/>
	<path d="M162.9,82.81c-0.34,0.38-0.88,1.48-1.7,1.77c-2.38,0.85-4.87,1.46-7.34,2c-1.49,0.33-2.55-0.51-2.98-1.91
		c-0.44-1.47,0.25-2.7,1.6-3.15c2.4-0.8,4.88-1.44,7.36-1.94C161.57,79.23,162.9,80.49,162.9,82.81z"/>
	<path d="M45.23,88.64c-2.06-0.58-4.66-1.19-7.16-2.05c-1.3-0.45-1.83-1.66-1.42-3.06c0.42-1.45,1.5-2.26,2.94-1.95
		c2.48,0.52,4.92,1.24,7.34,2c1.49,0.47,1.92,1.72,1.6,3.14C48.21,88.14,47.18,88.72,45.23,88.64z"/>
	<path d="M160.03,117.2c-2.09-0.59-4.68-1.21-7.18-2.07c-1.46-0.5-1.8-1.9-1.34-3.26c0.47-1.38,1.61-2.08,3.09-1.73
		c2.3,0.54,4.58,1.15,6.84,1.85c1.47,0.45,2.25,1.54,1.93,3.13C163.07,116.63,162.04,117.27,160.03,117.2z"/>
	<path d="M143.8,51.51c0.63,0.5,1.69,0.95,2,1.71c0.32,0.78,0.26,2.16-0.25,2.77c-1.63,1.95-3.49,3.72-5.38,5.43
		c-1.04,0.94-2.34,0.83-3.39-0.13c-1.06-0.96-1.33-2.33-0.44-3.36c1.78-2.05,3.8-3.9,5.76-5.79
		C142.42,51.84,142.97,51.81,143.8,51.51z"/>
	<path d="M80.69,119.06c0.61-3.6,1.28-7.52,1.96-11.44c0.26-1.52,0.66-3.03,0.76-4.56c0.04-0.63-0.35-1.47-0.82-1.94
		c-3.49-3.49-7.05-6.91-10.6-10.35c-1.01-0.97-2.02-1.95-1.56-3.53c0.49-1.66,1.94-1.93,3.38-2.14c4.82-0.69,9.64-1.4,14.47-2.03
		c1.19-0.15,1.84-0.68,2.35-1.75c2.07-4.34,4.24-8.63,6.35-12.95c0.64-1.3,1.22-2.65,2.98-2.67c1.75-0.02,2.37,1.28,3.02,2.6
		c2.13,4.37,4.32,8.72,6.44,13.1c0.45,0.92,0.94,1.43,2.05,1.58c5.18,0.69,10.35,1.44,15.49,2.36c0.94,0.17,2.19,1.04,2.46,1.86
		c0.27,0.82-0.23,2.27-0.9,2.95c-3.56,3.67-7.26,7.21-10.97,10.74c-0.86,0.82-1.14,1.55-0.9,2.78c0.95,4.89,1.74,9.82,2.57,14.73
		c0.21,1.26,0.27,2.53-0.92,3.41c-1.24,0.92-2.44,0.52-3.67-0.12c-4.3-2.28-8.66-4.47-12.9-6.85c-1.34-0.75-2.29-0.63-3.56,0.06
		c-4.38,2.39-8.8,4.7-13.24,6.96C82.58,123.09,80.63,121.9,80.69,119.06z M99.99,74.51c-1.86,3.76-3.64,7.06-5.14,10.48
		c-0.93,2.13-2.35,3.03-4.59,3.28c-3.69,0.4-7.35,1.03-11.33,1.61c0.59,0.63,0.97,1.06,1.38,1.45c2.55,2.5,5.09,5.01,7.65,7.49
		c0.97,0.94,1.4,1.95,1.09,3.35c-0.47,2.14-0.78,4.32-1.14,6.49c-0.32,1.93-0.6,3.87-0.94,6.09c3.82-2.01,7.32-3.76,10.73-5.68
		c1.65-0.93,3.04-0.86,4.66,0.04c3.41,1.9,6.9,3.66,10.55,5.58c-0.06-0.79-0.06-1.38-0.16-1.95c-0.58-3.45-1.1-6.92-1.8-10.35
		c-0.32-1.54,0.07-2.63,1.15-3.66c2.66-2.55,5.29-5.15,7.91-7.74c0.3-0.3,0.54-0.67,0.91-1.15c-3.89-0.56-7.52-1.14-11.16-1.57
		c-2.1-0.25-3.61-0.93-4.54-3.06C103.71,81.68,101.88,78.3,99.99,74.51z"/>
</g>
</svg>
