<?xml version="1.0" encoding="utf-8"?>
<!-- Generator: Adobe Illustrator 23.0.6, SVG Export Plug-In . SVG Version: 6.00 Build 0)  -->
<svg version="1.1" id="Layer_1" xmlns="http://www.w3.org/2000/svg" xmlns:xlink="http://www.w3.org/1999/xlink" x="0px" y="0px"
	 viewBox="0 0 200 200" style="enable-background:new 0 0 200 200;" xml:space="preserve">
<g>
	<path d="M57.97,31.95c0,2.22,0.02,4.31-0.03,6.39c0,0.19-0.41,0.53-0.64,0.53c-3.43,0.03-6.86,0.04-10.29,0
		c-0.23,0-0.64-0.41-0.64-0.63c-0.05-1.89-0.05-3.77,0-5.66c0.01-0.21,0.43-0.58,0.68-0.59c1.02-0.07,2.06-0.1,3.08-0.01
		c0.95,0.08,1.23-0.29,1.12-1.17c-0.05-0.37,0-0.75-0.01-1.13c-0.05-1.68-0.95-2.61-2.63-2.62c-2.5-0.02-5.01,0.01-7.51-0.02
		c-0.92-0.01-1.64,0.31-2.28,0.96c-2.7,2.73-5.41,5.45-8.15,8.15c-0.92,0.9-1.38,1.93-1.3,3.22c0.06,1.02-0.31,2.4,0.21,2.97
		c0.5,0.54,1.91,0.32,2.92,0.32c4.32,0.01,8.64-0.03,12.96-0.03c17.43,0,34.85,0,52.28,0c1.41,0,1.27-0.02,1.44-1.37
		c0.34-2.82-0.65-4.9-2.79-6.75c-2.35-2.04-4.44-4.38-6.65-6.59c-1.14-1.14-4.08-1.53-5.47-0.72c-0.92,0.54-1.29,1.39-1.27,2.42
		c0.03,2.58-0.35,2.12,2.06,2.16c0.92,0.02,1.84,0,2.78,0c0.06,0.31,0.12,0.5,0.12,0.7c0.01,2.02,0,4.04,0,6.15
		c-3.9,0-7.71,0-11.58,0c0-2.25,0-4.46,0-6.84c1.62,0,3.2,0,4.9,0c0-0.98-0.02-1.79,0-2.61c0.06-2.03,1.57-3.8,3.58-4.03
		c1.12-0.13,2.3-0.21,3.38,0.03c0.91,0.2,1.88,0.71,2.56,1.36c3.12,2.99,6.14,6.07,9.22,9.14c2.91-2.91,5.91-5.72,8.7-8.73
		c2.05-2.21,4.49-2.15,7.01-1.66c1.78,0.34,2.93,2.03,3,3.85c0.03,0.82,0.01,1.64,0.01,2.58c1.66,0,3.22,0,4.87,0
		c0,2.37,0,4.61,0,6.92c-3.8,0-7.58,0-11.49,0c0-2.17-0.02-4.28,0.03-6.4c0-0.16,0.46-0.44,0.72-0.45c1.13-0.05,2.26-0.04,3.39-0.02
		c0.55,0.01,0.83-0.17,0.79-0.77c-0.04-0.51,0.01-1.03-0.01-1.54c-0.06-1.56-1.03-2.51-2.58-2.66c-1.95-0.18-3.54,0.25-4.95,1.81
		c-2.27,2.52-4.74,4.86-7.18,7.23c-1.01,0.98-1.53,2.06-1.44,3.47c0.05,0.85,0.03,1.72,0.01,2.57c-0.02,0.53,0.2,0.76,0.73,0.72
		c0.27-0.02,0.55,0,0.82,0c16.5,0,33,0,49.5,0c5.86,0,11.73-0.02,17.59,0.02c0.91,0.01,1.16-0.24,1.15-1.15
		c-0.05-4.53,0.28-3.68-2.87-6.9c-2.11-2.16-4.3-4.24-6.4-6.4c-0.81-0.83-1.69-1.18-2.83-1.15c-2.3,0.05-4.6,0.01-6.89,0.02
		c-2.01,0.01-2.89,0.89-2.9,2.87c-0.01,2.04-0.01,2.04,2.07,2.04c0.92,0,1.83,0,2.84,0c0,2.24,0.02,4.33-0.03,6.41
		c0,0.18-0.43,0.51-0.67,0.51c-3.43,0.03-6.86,0.04-10.29-0.01c-0.22,0-0.63-0.41-0.64-0.64c-0.05-1.85-0.02-3.7-0.04-5.56
		c-0.01-0.54,0.22-0.73,0.73-0.72c1.13,0.02,2.26-0.02,3.4,0.01c0.68,0.02,0.93-0.24,0.88-0.9c-0.04-0.55-0.02-1.1,0-1.65
		c0.09-2.31,1.82-4.11,4.14-4.17c2.71-0.07,5.43-0.12,8.13,0.04c0.95,0.05,2.07,0.52,2.75,1.17c3.06,2.9,6.01,5.92,8.97,8.93
		c0.98,0.99,1.44,2.23,1.41,3.64c-0.02,0.89,0.04,1.79-0.02,2.67c-0.05,0.73,0.23,0.96,0.94,0.93c1.57-0.05,1.43-0.09,1.43,1.45
		c0,25.11,0,50.22,0,75.33c0,1.46,0,1.46-1.42,1.46c-29.84,0-59.69,0-89.53,0c-19.07,0-38.14,0-57.21,0c-1.4,0-1.4,0-1.4-1.38
		c0-21.2,0-42.4,0-63.6c0-4.08,0.02-8.16-0.02-12.24c-0.01-0.83,0.26-1.07,1.06-1.04c1.31,0.04,1.31,0,1.31-1.34
		c0-0.93-0.18-1.9,0.06-2.77c0.31-1.12,0.73-2.36,1.49-3.18c2.83-3.03,5.82-5.91,8.76-8.84c0.84-0.84,1.89-1.23,3.07-1.24
		c2.57-0.02,5.15-0.03,7.72,0c2.48,0.03,4.25,1.84,4.33,4.31c0,0.03,0,0.07,0,0.1c0.05,2.31,0.05,2.31,2.43,2.31
		C56.24,31.95,57.06,31.95,57.97,31.95z M28.75,46.11c0,0.63,0,1.11,0,1.58c0,22.78,0,45.56,0,68.33c0,1.4,0,1.4,1.38,1.4
		c28.3,0,56.6,0,84.9,0c18.35,0,36.7-0.01,55.06,0.02c0.97,0,1.28-0.23,1.28-1.25c-0.03-22.91-0.02-45.83-0.02-68.74
		c0-1.35,0-1.35-1.34-1.35c-46.65,0-93.31,0-139.96,0C29.67,46.11,29.3,46.11,28.75,46.11z"/>
	<path d="M93.14,160.56c0-0.4,0-0.74,0-1.08c0-12.07,0.01-24.14-0.02-36.21c0-0.96,0.21-1.3,1.23-1.28
		c3.81,0.06,7.61,0.02,11.42,0.02c0.33,0,0.67,0,1.07,0c0,12.92,0,25.72,0,38.55C102.3,160.56,97.79,160.56,93.14,160.56z"/>
	<path d="M100.03,170.33c-8.85,0-17.7-0.01-26.54,0.02c-0.97,0-1.3-0.24-1.27-1.25c0.07-2.33,0.01-2.35,2.19-3.21
		c5.79-2.29,11.83-3.42,18-3.96c6.66-0.57,13.29-0.42,19.9,0.54c5,0.73,9.88,1.91,14.54,3.93c0.76,0.33,0.99,0.74,0.97,1.54
		c-0.04,2.38-0.01,2.39-2.38,2.39C116.97,170.33,108.5,170.33,100.03,170.33z"/>
	<path d="M100.04,175c-8.81,0-17.63,0-26.44,0c-1.36,0-1.36,0-1.36-1.32c0-2.23,0-2.23,2.2-2.23c17.28,0,34.56,0,51.85,0
		c1.51,0,1.51,0,1.51,1.48c0,2.07,0,2.07-2.04,2.07C117.19,175,108.61,175,100.04,175z"/>
</g>
</svg>
