<?xml version="1.0" encoding="utf-8"?>
<!-- Generator: Adobe Illustrator 23.0.6, SVG Export Plug-In . SVG Version: 6.00 Build 0)  -->
<svg version="1.1" id="Layer_1" xmlns="http://www.w3.org/2000/svg" xmlns:xlink="http://www.w3.org/1999/xlink" x="0px" y="0px"
	 viewBox="0 0 200 200" style="enable-background:new 0 0 200 200;" xml:space="preserve">
<g>
	<path d="M92.75,116.69c0,0.74,0,1.49,0,2.23c0,16.91,0,33.82,0,50.73c0,0.78,0.06,1.58-0.06,2.34c-0.26,1.65-1.26,2.67-2.94,2.86
		c-1.76,0.2-3.11-0.49-3.66-2.23c-0.27-0.87-0.3-1.84-0.3-2.77c-0.02-16.68-0.01-33.35-0.01-50.03c0-1.01,0-2.02,0-3.04
		c-0.14-0.05-0.28-0.11-0.42-0.16c-0.35,0.76-0.73,1.51-1.06,2.28c-7.4,17.4-14.79,34.8-22.18,52.21c-1.44,3.4-3.04,4.47-5.28,3.57
		c-2.18-0.88-2.58-2.96-1.19-6.23c9.45-22.22,18.89-44.44,28.34-66.65c0.39-0.92,0.76-1.85,1.28-3.13c-3.36,0-6.45,0-9.54,0
		c-2.9,0-5.79-0.01-8.69,0c-3.41,0.02-5.99-1.37-7.85-4.28c-0.4-0.62-1.39-1.17-2.13-1.2c-2.88-0.14-5.77-0.06-8.8-0.06
		c0-10.16,0-20.15,0-30.54c2.63,0,5.33-0.06,8.03,0.02c1.37,0.04,2.23-0.2,2.92-1.62c1.51-3.1,4.24-4.46,7.65-4.5
		c1.01-0.01,2.02,0,3.12-0.17c-4.06-1.47-7.49-3.69-9.7-7.47c-2.19-3.75-2.81-7.75-1.77-11.98c1.59-6.47,7.38-11.29,14.18-11.82
		c7.47-0.58,13.11,3.68,16.65,12.57c4.63-9.71,10.18-13.63,17.65-12.45c7.65,1.21,12.71,6.48,13.67,14.25
		c0.89,7.13-3.25,13.02-11.13,16.49c2.36,0.71,5.49,1.14,8.05,2.57c2.98,1.67,3.32,5.08,3.22,8.59c10.43-1.77,20.63-3.51,30.94-5.26
		c0,10.55,0,20.85,0,31.34c-10.3-1.76-20.46-3.5-30.97-5.3c0,0.9,0.04,1.65-0.01,2.4c-0.31,5.13-3.69,8.37-8.83,8.4
		c-5.32,0.03-10.65,0.01-15.97,0.01c-0.77,0-1.54,0-2.62,0c0.7,1.71,1.26,3.14,1.86,4.56c9.26,21.79,18.53,43.57,27.8,65.36
		c0.18,0.43,0.4,0.85,0.55,1.29c0.73,2.12,0.02,4.03-1.74,4.77c-1.92,0.8-3.78,0-4.73-2.2c-3.92-9.12-7.79-18.25-11.68-27.38
		c-4.03-9.48-8.06-18.96-12.09-28.44C93.13,116.66,92.94,116.67,92.75,116.69z M101.24,56.4c-6.16-2.06-10.07-6.2-11.88-13.16
		c-1.76,7-5.72,11.08-11.87,13.16C85.4,56.4,93.32,56.4,101.24,56.4z"/>
</g>
</svg>
