<?xml version="1.0" encoding="utf-8"?>
<!-- Generator: Adobe Illustrator 23.0.6, SVG Export Plug-In . SVG Version: 6.00 Build 0)  -->
<svg version="1.1" id="Layer_1" xmlns="http://www.w3.org/2000/svg" xmlns:xlink="http://www.w3.org/1999/xlink" x="0px" y="0px"
	 viewBox="0 0 200 200" style="enable-background:new 0 0 200 200;" xml:space="preserve">
<g>
	<path d="M100.06,173.54c-10.59-0.22-21.19-0.25-31.77-0.72c-11.52-0.52-21.99-3.89-30.19-12.57c-5.99-6.34-9.44-13.96-10.28-22.5
		c-0.85-8.74-1.07-17.55-1.19-26.34c-0.16-11.99-0.05-23.99,0.12-35.99c0.11-7.5,0.49-15.02,3.09-22.18
		c4.93-13.59,14.66-21.77,28.62-24.99c7.97-1.84,16.13-1.73,24.25-1.76c13.73-0.04,27.47-0.05,41.2,0.08
		c7.39,0.07,14.8,0.39,21.9,2.8c14.08,4.77,22.57,14.62,25.88,29c1.68,7.31,1.7,14.79,1.72,22.23c0.04,14.52,0.07,29.04-0.07,43.56
		c-0.08,7.56-0.46,15.13-3.09,22.35c-5.2,14.26-15.54,22.47-30.26,25.33c-8.35,1.62-16.84,1.36-25.3,1.46
		c-4.88,0.05-9.75,0.01-14.63,0.01C100.06,173.38,100.06,173.46,100.06,173.54z M100.09,40.01c0-0.12,0-0.23,0-0.35
		c-4.6,0-9.2-0.12-13.79,0.03c-7.39,0.23-14.82,0.22-22.14,1.08c-10.99,1.3-18.91,7.09-22.08,18.04c-1.17,4.03-1.73,8.36-1.82,12.57
		c-0.32,14.12-0.43,28.25-0.37,42.37c0.04,7.33,0.2,14.7,1.05,21.97c1.28,11,7.06,18.92,18.01,22.1c4.03,1.17,8.36,1.75,12.56,1.84
		c14.12,0.32,28.25,0.38,42.37,0.39c8.01,0.01,16.05,0.16,23.96-1.34c10.21-1.94,17.32-7.72,20.21-17.85
		c1.14-3.99,1.71-8.25,1.79-12.41c0.3-15.75,0.42-31.5,0.33-47.25c-0.04-6.37-0.34-12.8-1.35-19.07
		c-1.65-10.25-7.6-17.35-17.74-20.25c-3.94-1.13-8.14-1.68-12.24-1.79C119.26,39.84,109.67,40.01,100.09,40.01z"/>
	<path d="M62.33,99.74c0.06-20.88,16.9-37.62,37.8-37.58c20.96,0.04,37.72,16.94,37.62,37.93c-0.09,20.87-16.97,37.57-37.89,37.5
		C79,137.51,62.27,120.65,62.33,99.74z M124.56,99.86c-0.01-13.44-11.09-24.5-24.53-24.5c-13.44,0.01-24.5,11.08-24.5,24.52
		c0.01,13.43,11.09,24.51,24.53,24.5C113.5,124.38,124.57,113.29,124.56,99.86z"/>
	<path d="M139.33,51.79c4.82,0.03,8.86,4.13,8.81,8.95c-0.06,4.76-4.06,8.74-8.83,8.77c-4.8,0.03-8.91-4.07-8.9-8.88
		C130.43,55.79,134.5,51.75,139.33,51.79z"/>
</g>
</svg>
