<?xml version="1.0" encoding="utf-8"?>
<!-- Generator: Adobe Illustrator 23.0.6, SVG Export Plug-In . SVG Version: 6.00 Build 0)  -->
<svg version="1.1" id="Layer_1" xmlns="http://www.w3.org/2000/svg" xmlns:xlink="http://www.w3.org/1999/xlink" x="0px" y="0px"
	 viewBox="0 0 200 200" style="enable-background:new 0 0 200 200;" xml:space="preserve">
<g>
	<path d="M95.24,41.17c0,0.91,0,1.84,0,2.76c0,20.57,0.02,41.15-0.03,61.72c0,1.67,0.5,2.83,1.68,4
		c14.48,14.41,28.9,28.87,43.36,43.3c0.77,0.76,1.71,1.35,2.55,2.01c-18.03,19.32-51.03,27.24-79.33,12.09
		c-28.19-15.09-42-48.96-32.1-79.42C41.84,55.44,71.66,40.41,95.24,41.17z"/>
	<path d="M105.57,102.6c19.23-10.31,38.72-20.76,58.2-31.2c13.17,22.75,10.7,56.93-11.21,78.28
		C136.94,134.02,121.32,118.37,105.57,102.6z"/>
	<path d="M104.93,92.06c0-22.6,0-44.81,0-67.02c20.68-0.85,46.53,11.26,58.96,35.39C144.32,70.94,124.74,81.44,104.93,92.06z"/>
</g>
</svg>
