<?xml version="1.0" encoding="utf-8"?>
<!-- Generator: Adobe Illustrator 23.0.6, SVG Export Plug-In . SVG Version: 6.00 Build 0)  -->
<svg version="1.1" id="Layer_1" xmlns="http://www.w3.org/2000/svg" xmlns:xlink="http://www.w3.org/1999/xlink" x="0px" y="0px"
	 viewBox="0 0 200 200" style="enable-background:new 0 0 200 200;" xml:space="preserve">
<g>
	<path d="M100.01,165.29c-20.85,0-41.7-0.03-62.55,0.03c-4.05,0.01-7.5-1.05-10.2-4.2c-1.95-2.28-2.79-4.95-2.79-7.86
		c-0.02-29.65-0.01-59.31-0.01-88.96c0-5.75-0.04-11.51,0.01-17.26c0.04-5.03,2.12-8.97,6.76-11.12c1.66-0.77,3.67-1.15,5.51-1.15
		c42.1-0.06,84.19-0.01,126.29-0.09c6.35-0.01,10.87,3.94,12.02,8.6c0.3,1.22,0.5,2.51,0.5,3.77c0.03,34.96,0.02,69.93,0.04,104.89
		c0,3.59-0.61,6.92-3.22,9.62c-2.08,2.16-4.55,3.62-7.57,3.64c-12.69,0.08-25.38,0.07-38.06,0.09
		C117.81,165.3,108.91,165.29,100.01,165.29z M34.49,69.96c0,0.56,0,0.95,0,1.34c0,27.15,0,54.29,0,81.44
		c0,1.97,0.51,2.47,2.54,2.47c42,0,84,0,126,0c0.2,0,0.39-0.01,0.59,0c1.19,0.1,1.69-0.63,1.87-1.64c0.09-0.53,0.04-1.08,0.04-1.62
		c0-26.8,0-53.6,0-80.4c0-0.52,0-1.04,0-1.58C121.76,69.96,78.2,69.96,34.49,69.96z M34.49,59.74c43.79,0,87.36,0,131.02,0
		c0-4.18,0-8.25,0-12.32c0-2.13-0.46-2.6-2.55-2.6c-17.85,0-35.7,0-53.55,0c-24.19,0-48.38,0.01-72.58-0.02
		c-1.36,0-2.31,0.4-2.33,1.79C34.45,50.95,34.49,55.31,34.49,59.74z"/>
	<path d="M81.46,137.52c0.38-0.98,0.65-2.02,1.17-2.93c7.17-12.5,14.38-24.97,21.59-37.45c2.22-3.85,4.45-7.7,6.68-11.55
		c1.39-2.4,3.02-3.38,5.35-2.97c2.15,0.38,3.81,1.64,4.18,3.8c0.21,1.23-0.08,2.78-0.7,3.88c-3.75,6.74-7.66,13.4-11.52,20.08
		c-5.69,9.86-11.38,19.72-17.07,29.57c-1.21,2.09-3.3,3-5.46,2.44C83.21,141.76,81.69,139.93,81.46,137.52z"/>
	<path d="M142.58,112.55c-3.24-3.21-6.2-6.14-9.15-9.08c-2.27-2.25-4.52-4.51-6.78-6.77c-2.11-2.12-2.13-5.09-0.05-7.2
		c2.04-2.06,4.92-2.09,7.05,0.03c6.48,6.45,12.94,12.92,19.38,19.4c1.91,1.93,1.97,4.93,0.05,6.86c-6.5,6.57-13.03,13.1-19.6,19.6
		c-1.96,1.94-4.95,1.77-6.96-0.24c-1.96-1.97-2.06-4.83-0.08-6.83c4.9-4.97,9.85-9.89,14.79-14.82
		C141.57,113.16,142.03,112.94,142.58,112.55z"/>
	<path d="M57.66,112.38c2.89,2.88,5.66,5.66,8.44,8.43c2.4,2.4,4.81,4.78,7.19,7.2c2.22,2.25,2.23,5.12,0.05,7.27
		c-2.05,2.03-5.01,1.96-7.17-0.2c-6.29-6.29-12.58-12.58-18.87-18.88c-2.37-2.38-2.37-5.26-0.02-7.62
		c6.36-6.36,12.71-12.73,19.07-19.08c3.24-3.23,7.5-0.92,8.39,2.25c0.56,1.99-0.07,3.63-1.5,5.06
		C68.09,101.95,62.95,107.09,57.66,112.38z"/>
	<path d="M57.68,56.03c-2.01-0.04-3.79-1.94-3.71-3.93c0.08-1.89,2.05-3.71,3.93-3.63c1.91,0.07,3.79,2.02,3.72,3.86
		C61.55,54.31,59.68,56.07,57.68,56.03z"/>
	<path d="M69.96,56.03c-1.93,0.02-3.81-1.75-3.87-3.65c-0.06-1.95,1.83-3.9,3.8-3.92c1.9-0.02,3.78,1.81,3.84,3.72
		C73.79,54.18,72,56,69.96,56.03z"/>
	<path d="M45.69,56.03c-2.08,0.03-3.83-1.71-3.83-3.78c0.01-1.96,1.73-3.71,3.72-3.79c1.91-0.07,3.82,1.82,3.86,3.81
		C49.49,54.14,47.62,56,45.69,56.03z"/>
</g>
</svg>
