<?xml version="1.0" encoding="utf-8"?>
<!-- Generator: Adobe Illustrator 23.0.6, SVG Export Plug-In . SVG Version: 6.00 Build 0)  -->
<svg version="1.1" id="Layer_1" xmlns="http://www.w3.org/2000/svg" xmlns:xlink="http://www.w3.org/1999/xlink" x="0px" y="0px"
	 viewBox="0 0 200 200" style="enable-background:new 0 0 200 200;" xml:space="preserve">
<g>
	<path d="M155.1,88.34c-0.03-0.49-0.08-0.95-0.08-1.4c0-9.05-0.02-18.1,0.04-27.15c0.01-1.74-0.51-3.04-1.76-4.28
		c-9.87-9.78-19.67-19.63-29.49-29.46c-0.33-0.33-0.62-0.69-0.93-1.05h-76.4c-2.06,1.27-1.65,3.21-1.65,5.03
		C44.8,48.71,44.8,67.39,44.8,86.07v1.87c-3.94-0.43-5.7,0.54-7.1,4.21c-0.11,0.45-0.27,0.88-0.47,1.31V175h0.06v-4.52
		c0.7,2.05,1.97,3.55,4.26,4.52h117.13c2.19-0.95,3.46-2.36,4.08-4.55V92.78C161.12,88.24,158.77,86.89,155.1,88.34z M156.85,94.72
		v66.46C144.09,150,131.53,139,118.86,127.89C131.53,116.84,144.09,105.86,156.85,94.72z M51.08,32.22c0-0.24,0.02-0.48,0.05-0.99
		h1.7c21.73,0,43.46,0.01,65.19-0.02c1.05,0,1.81,0.26,2.57,1.03c8.97,9.09,17.97,18.16,26.99,27.2c0.71,0.71,1,1.42,1,2.43
		c-0.04,10.18-0.04,20.36,0,30.54c0,0.96-0.28,1.61-1.01,2.25c-15.1,13.13-30.18,26.28-45.26,39.44c-0.92,0.8-1.84,1.59-2.86,2.46
		c-2.37-2.11-4.71-4.17-7.04-6.24c-13.47-12.02-26.94-24.04-40.39-36.1c-0.47-0.43-0.9-1.2-0.9-1.81
		C51.07,72.35,51.08,52.28,51.08,32.22z M43.27,94.77c12.5,11.17,24.88,22.23,37.42,33.44C68.17,139.18,55.81,150,43.27,160.98
		V94.77z M43.25,169.26c-0.06-0.1-0.12-0.2-0.17-0.29c13.97-12.25,27.95-24.51,42.02-36.84c1.54,1.37,3,2.66,4.45,3.95
		c2.52,2.25,5.01,4.52,7.55,6.75c1.66,1.45,2.85,1.42,4.53-0.03c4.21-3.65,8.41-7.32,12.73-11.07
		c14.19,12.44,28.35,24.84,42.82,37.53H43.25z"/>
	<path d="M132.56,82.59c-1-7.2-3.77-13.81-6.91-20.27c-3.03-6.23-6.68-12.05-11.65-16.95c-1.73-1.7-3.61-3.1-6.09-3.59
		c-1.79-0.36-3.22,0.1-4.23,1.57c-0.94,1.37-1.8,2.8-2.55,4.27c-4.02,7.89-9.29,14.63-17,19.33c-4.33,2.64-8.47,5.62-12.61,8.55
		c-2.18,1.54-3.72,3.59-4,6.38c-0.61,5.83,1.24,10.8,5.38,14.89c3.04,3,6.68,3.9,10.79,2.56c1.29-0.42,2.55-0.93,3.93-1.44
		c0.18,0.53,0.31,0.99,0.48,1.42c1.47,3.66,2.84,7.37,4.46,10.96c0.63,1.38,1.66,2.68,2.79,3.71c1.99,1.81,5.05,1.44,6.84-0.56
		c1.26-1.41,2.58-2.76,3.81-4.2c1.05-1.22,2.11-2.45,2.97-3.8c1.02-1.62,0.56-3.09-1.07-4.11c-0.41-0.26-0.98-0.31-1.3-0.64
		c-0.46-0.46-1.1-1.1-1.07-1.63c0.07-1.86-0.2-3.4-1.75-4.71c-0.52-0.44-0.44-1.69-0.44-2.57c0-0.25,0.65-0.66,1.05-0.73
		c3.32-0.61,6.65-0.62,9.83,0.61c3.66,1.42,7.37,2.46,11.28,2.97c3.15,0.41,5.17-0.56,6.41-3.5
		C133.06,88.33,132.95,85.45,132.56,82.59z M115.01,88.19c-4.41-1.47-8.84-1.3-13.31-0.29c-1.04,0.23-1.63,0.77-1.89,1.78
		c-0.51,2-1.27,4.23,0.02,5.96c1.4,1.87,2.06,3.64,2.06,5.97c0.01,1.86,1.91,2.39,3.24,2.97c-1.93,2.09-3.81,4.19-5.78,6.21
		c-0.79,0.81-1.67,0.49-2.21-0.39c-0.82-1.32-1.68-2.66-2.26-4.09c-1.37-3.44-2.61-6.94-3.85-10.43c-0.94-2.65-1.57-2.97-4.23-2.01
		c-1.28,0.46-2.59,0.87-3.9,1.25c-2.74,0.78-5.05-0.06-6.89-2.1c-2.44-2.7-3.73-5.9-3.84-9.58c-0.06-2.25,0.76-3.99,2.56-5.29
		c2.14-1.54,4.27-3.11,6.46-4.59c2.59-1.76,5.16-3.56,7.87-5.11c5.35-3.06,9.19-7.52,12.4-12.64c0.28-0.45,0.58-0.88,0.99-1.51
		c1.21,13.76,6.53,25.39,16.27,35.13C117.42,88.98,116.21,88.59,115.01,88.19z M128.54,89.27c-0.14,1.78-1.02,1.94-2.51,0.9
		c-3.05-2.14-7.07-6.58-9.16-10.17c2.02-1.81,3.35-3.93,3.5-6.62c0.28-5-3.51-8.76-8.93-8.6c-1.76,0.05-2.32-0.58-2.75-2.07
		c-1.3-4.46-2.6-8.93-2.37-13.64c0.06-1.19,0.61-2.36,0.94-3.53c1.1,0.57,2.36,0.95,3.28,1.74c3.24,2.75,5.64,6.22,7.85,9.81
		c4.62,7.48,8.33,15.38,9.99,24.07C128.88,83.78,128.76,86.58,128.54,89.27z"/>
</g>
</svg>
