<?xml version="1.0" encoding="utf-8"?>
<!-- Generator: Adobe Illustrator 23.0.6, SVG Export Plug-In . SVG Version: 6.00 Build 0)  -->
<svg version="1.1" id="Layer_1" xmlns="http://www.w3.org/2000/svg" xmlns:xlink="http://www.w3.org/1999/xlink" x="0px" y="0px"
	 viewBox="0 0 200 200" style="enable-background:new 0 0 200 200;" xml:space="preserve">
<g>
	<path d="M71.15,37.65c0-1.88-0.03-3.6,0.01-5.31c0.08-3.97,3.33-7.29,7.28-7.3c10.15-0.04,20.31-0.04,30.46,0
		c3.95,0.02,7.18,3.35,7.25,7.32c0.03,1.71,0,3.43,0,5.31c4.22,0.66,6.36,3.72,8.37,7.05c5.17,8.54,10.47,17,15.64,25.54
		c0.58,0.96,0.93,2.22,0.94,3.35c0.09,5.93,0.04,11.85,0.04,18.04c0.68-0.43,1.19-0.73,1.68-1.07c6.65-4.65,13.27-9.34,19.94-13.96
		c3.76-2.61,8.49-1.86,11.11,1.66c2.45,3.29,2.1,7.49-1,10.63c-4.31,4.37-8.69,8.69-13.03,13.03c-5.9,5.89-11.81,11.75-17.66,17.69
		c-0.57,0.58-0.99,1.59-0.99,2.41c-0.06,14.06-0.04,28.12-0.04,42.18c0,6.68-4.13,10.8-10.79,10.81c-24.47,0-48.94,0-73.42,0
		c-6.63,0-10.79-4.17-10.79-10.82c0-30.15-0.01-60.3,0.04-90.44c0-1.22,0.41-2.58,1.04-3.63c5.41-8.94,10.95-17.8,16.37-26.73
		C65.37,40.48,67.61,38.35,71.15,37.65z M53.25,69.91c27.05,0,53.83,0,80.78,0c-0.28-0.49-0.46-0.85-0.67-1.19
		c-4.77-7.75-9.57-15.48-14.29-23.25c-1.27-2.09-2.99-2.97-5.41-2.97c-13.33,0.04-26.65,0.04-39.98,0
		c-2.49-0.01-4.22,0.95-5.51,3.08c-4.25,7.02-8.59,14-12.89,21C54.62,67.63,53.99,68.69,53.25,69.91z M105.87,143.96
		c-3.31-0.18-6.21-0.34-9.11-0.51c-2.38-0.14-3.3-1.12-3.07-3.48c0.69-7.14,1.62-14.23,4.88-20.83c-0.35-0.18-0.66-0.37-0.99-0.49
		c-10.31-4.01-19.49-2-27.86,5c-2.13,1.78-2.45,3.48-1.58,6.04c4.08,11.94,17.11,19.72,29.55,17.42
		C100.48,146.59,103.17,145.71,105.87,143.96z M117.62,113.11c-3.88-12.16-15.83-19.52-28.86-17.36
		c-14.11,2.33-21.31,13.81-21.56,23.46c0.39-0.28,0.69-0.55,1.03-0.75c2.44-1.46,4.77-3.21,7.37-4.32
		c8.43-3.58,16.88-3.31,25.26,0.38c0.57,0.25,1.48,0.36,1.95,0.08C107.44,111.7,112.3,111.19,117.62,113.11z M170.82,82.93
		c-0.65-0.87-1.12-1.83-1.87-2.42c-1.13-0.88-2.35-0.47-3.46,0.3c-12.64,8.87-25.29,17.74-37.93,26.61
		c-1.73,1.22-1.91,2.58-0.57,4.21c1.72,2.09,3.46,4.16,5.22,6.22c1.42,1.67,2.82,1.74,4.38,0.19
		c10.91-10.88,21.82-21.77,32.69-32.69C169.88,84.77,170.21,83.92,170.82,82.93z M98.84,138.7c5.93,0.01,11.56,0.47,17.13-1.09
		c3.98-1.12,6.61-5.64,6.52-9.63c-0.01-0.39-0.37-0.98-0.71-1.11c-3.69-1.43-5.53-4.03-5.37-8.03c0.01-0.34-0.34-0.86-0.66-1.03
		c-4.01-2.12-10.37-0.42-12.53,3.51C100.32,126.61,99.65,132.51,98.84,138.7z M110.96,37.48c0.09-0.24,0.15-0.33,0.15-0.42
		c0.01-1.25,0.03-2.5,0.03-3.75c-0.01-2.43-0.86-3.28-3.28-3.28c-5.21-0.01-10.41,0-15.62,0c-4.37,0-8.74,0.01-13.12-0.01
		c-1.49-0.01-2.69,0.56-2.87,2.05c-0.21,1.77-0.05,3.58-0.05,5.41C87.9,37.48,99.4,37.48,110.96,37.48z M127.36,119.91
		c-1.12-1.3-2.14-2.5-3.21-3.74c-1.27,1.16-3.07,1.86-2.61,3.83c0.17,0.74,1.01,1.63,1.74,1.89
		C125.16,122.55,126.06,120.86,127.36,119.91z"/>
	<path d="M92.9,107.51c-1.36-0.03-2.41-1.16-2.39-2.55c0.03-1.39,1.13-2.47,2.49-2.44c1.3,0.03,2.48,1.25,2.44,2.55
		C95.42,106.37,94.2,107.54,92.9,107.51z"/>
</g>
</svg>
