<?xml version="1.0" encoding="utf-8"?>
<!-- Generator: Adobe Illustrator 23.0.6, SVG Export Plug-In . SVG Version: 6.00 Build 0)  -->
<svg version="1.1" id="Layer_1" xmlns="http://www.w3.org/2000/svg" xmlns:xlink="http://www.w3.org/1999/xlink" x="0px" y="0px"
	 viewBox="0 0 200 200" style="enable-background:new 0 0 200 200;" xml:space="preserve">
<g>
	<path d="M136.76,90.4c-8.21,2.55-16.9,3.55-26.32,5.36c3.81-12.84,1.59-26.9,12.75-36.3H65.25c-1.27,0-2.3-1.03-2.3-2.3v-1.25
		c0-1.27,1.03-2.3,2.3-2.3h60.63c7.39-2.01,13.58-6.41,18.71-13.79c0.18-0.27,0.6-0.44,0.7-0.72c0.71-2.11,2.06-4.29,1.91-6.35
		c-0.39-5.11-4.02-7.73-9.97-7.74c-25.84-0.03-51.68-0.03-77.53,0c-7.44,0-10.38,2.96-10.39,10.43c-0.02,22.81-0.02,45.6,0,68.41
		c0,1.34,0.12,2.67,0.21,4.26c16.79,1.54,29.07,9.54,33.92,25.89c4.88,16.4-0.95,29.93-14.99,40.82h39.21
		c-0.16-3.38-0.43-6.4-0.44-9.41c-0.04-14.02-0.02-28.04-0.02-42.06c0.01-11.23,2.82-14.01,14.14-14.02h25.75V81.74
		C143.36,84.99,140.53,89.23,136.76,90.4z M62.95,39.9c0-1.27,1.03-2.29,2.3-2.29h66.36c1.27,0,2.29,1.02,2.29,2.29v1.26
		c0,1.27-1.02,2.29-2.29,2.29H65.25c-1.27,0-2.3-1.02-2.3-2.29V39.9z M62.95,71.19c0-1.01,0.82-1.83,1.83-1.83h41.65
		c1.01,0,1.83,0.82,1.83,1.83v2.18c0,1.01-0.82,1.83-1.83,1.83H64.78c-1.01,0-1.83-0.82-1.83-1.83V71.19z M62.95,86.84
		c0-1.01,0.82-1.83,1.83-1.83h41.65c1.01,0,1.83,0.82,1.83,1.83v2.18c0,1.01-0.82,1.83-1.83,1.83H64.78c-1.01,0-1.83-0.82-1.83-1.83
		V86.84z M133.04,104.67c0,1.26-1.02,2.28-2.28,2.28H65.23c-1.26,0-2.28-1.02-2.28-2.28v-1.28c0-1.27,1.02-2.28,2.28-2.28h65.53
		c1.26,0,2.28,1.01,2.28,2.28V104.67z"/>
	<path d="M49.48,113.41c-16.97-0.16-30.75,13.67-30.75,30.87c0,17.15,13.74,30.82,30.86,30.7c16.81-0.13,30.32-13.87,30.26-30.8
		C79.79,127.22,66.32,113.57,49.48,113.41z M29.02,149.82c-3.03,0-5.48-2.44-5.48-5.47c0-3.02,2.45-5.47,5.48-5.47
		c3.02,0,5.47,2.45,5.47,5.47C34.49,147.38,32.04,149.82,29.02,149.82z M49.29,170.1c-3.02,0-5.47-2.45-5.47-5.47
		c0-3.03,2.45-5.47,5.47-5.47s5.47,2.44,5.47,5.47C54.76,167.65,52.31,170.1,49.29,170.1z M49.29,149.66
		c-3.02,0-5.47-2.45-5.47-5.47s2.45-5.47,5.47-5.47s5.47,2.45,5.47,5.47S52.31,149.66,49.29,149.66z M49.29,129.55
		c-3.02,0-5.47-2.45-5.47-5.47c0-3.02,2.45-5.47,5.47-5.47s5.47,2.45,5.47,5.47C54.76,127.1,52.31,129.55,49.29,129.55z
		 M69.56,149.82c-3.02,0-5.47-2.44-5.47-5.47c0-3.02,2.45-5.47,5.47-5.47s5.47,2.45,5.47,5.47
		C75.03,147.38,72.58,149.82,69.56,149.82z"/>
	<path d="M112.33,143.61c0-8.42-0.05-16.15,0.02-23.88c0.03-3.53,2.12-5.2,5.51-5.2c19.4-0.02,38.8-0.12,58.19,0.19
		c1.74,0.03,4.82,2.62,4.92,4.16c0.5,8.03,0.23,16.1,0.23,24.73c-5.42,0-10.44,0.15-15.43-0.11c-1.14-0.06-2.57-1.27-3.24-2.35
		c-8.13-12.88-23.11-12.92-31.17-0.1c-0.73,1.17-2.4,2.37-3.69,2.44C122.81,143.78,117.92,143.61,112.33,143.61z M172.64,131.28
		c0-2.87,0-5.15,0-7.63c-3.07,0-5.84,0-8.87,0c0,2.65,0,5.04,0,7.63C166.88,131.28,169.64,131.28,172.64,131.28z"/>
	<path d="M129.1,149.01c2.21,11.21,7.76,16.86,16.93,17.47c9.12,0.61,14.77-4.57,18.96-17.54c5.1,0,10.27,0,16.1,0
		c0,7.56,0.22,15.08-0.22,22.57c-0.07,1.24-3.03,3.29-4.67,3.31c-19.58,0.23-39.16,0.26-58.73-0.05c-1.73-0.03-4.76-2.72-4.89-4.36
		c-0.55-7-0.23-14.07-0.23-21.41C118.15,149.01,123.48,149.01,129.1,149.01z"/>
	<path d="M157.17,35.38c4.68,4.73,9.28,9.37,13.67,13.79c-10.57,10.52-21.31,21.22-31.74,31.6c-4.37-4.35-9.2-9.16-13.65-13.59
		C135.78,56.83,146.49,46.09,157.17,35.38z"/>
	<path d="M159.14,149.26c-0.09,6.73-5.56,12.16-12.23,12.15c-6.85-0.01-12.54-5.79-12.39-12.6c0.14-6.58,5.78-12.15,12.34-12.18
		C153.7,136.6,159.24,142.29,159.14,149.26z"/>
	<path d="M176.6,46.39c-5.95-5.96-10.58-10.6-16.23-16.26c3.22-1.77,7.41-5.53,8.97-4.65c4.47,2.53,8.66,6.47,11.3,10.85
		C181.67,38.05,178.3,42.43,176.6,46.39z"/>
	<path d="M133.69,86.02c-4.9,0.96-10.39,2.03-16.61,3.25c1.23-6.29,2.31-11.77,3.28-16.72C124.66,76.9,129.05,81.34,133.69,86.02z"
		/>
</g>
</svg>
