<svg id="Design" xmlns="http://www.w3.org/2000/svg" viewBox="0 0 34.02 20.82"><defs><style>.cls-1{fill:#fff;}</style></defs><title>Social icons</title><path class="cls-1" d="M26.87,5.19C19.05,5.19,19,13,19,13s-.53,7.79,7.83,7.79c0,0,6.29.36,6.92-4.6a.73.73,0,0,0-.72-.82H30.88a.71.71,0,0,0-.69.5c-.2.65-.87,1.69-3.2,1.69a3.32,3.32,0,0,1-3.52-2.71.72.72,0,0,1,.72-.83h9.09a.73.73,0,0,0,.73-.7C34.08,11.25,33.7,5.19,26.87,5.19Zm-3,6.12a.43.43,0,0,1-.41-.56A3.5,3.5,0,0,1,27,8.17,2.89,2.89,0,0,1,30,10.83a.42.42,0,0,1-.42.48ZM14.52,9.49a.3.3,0,0,1,0-.55,3.61,3.61,0,0,0,1.9-3.51C16.37,1.79,13.83,0,10.61,0H.54A.54.54,0,0,0,0,.54V19.85a.54.54,0,0,0,.54.54H10.6s6.48.19,6.48-6C17.08,14.36,17.3,10.41,14.52,9.49ZM4.67,4a.39.39,0,0,1,.39-.39h5.55S12,3.62,12,5.74s-.84,2.43-1.8,2.43H5.06a.39.39,0,0,1-.39-.38Zm5.64,12.76H5.06a.4.4,0,0,1-.39-.39V11.7a.39.39,0,0,1,.39-.39h5.55s2.15,0,2.14,2.81C12.75,16.5,11.15,16.75,10.31,16.77ZM22.48.81V2.56a.38.38,0,0,0,.39.38h7.64a.39.39,0,0,0,.39-.38V.81a.39.39,0,0,0-.39-.38H22.87A.38.38,0,0,0,22.48.81Z"/></svg>