<svg id="Design" xmlns="http://www.w3.org/2000/svg" viewBox="0 0 34.63 34.63"><defs><style>.cls-1{fill:#fff;}</style></defs><title>Social icons</title><path class="cls-1" d="M18.89.07A17.32,17.32,0,1,0,34.56,15.73,17.34,17.34,0,0,0,18.89.07ZM28.7,8.78a14.26,14.26,0,0,1,2.83,7.78.27.27,0,0,1-.33.27,26.23,26.23,0,0,0-9-.35.26.26,0,0,1-.28-.16q-.48-1.14-1-2.22a.27.27,0,0,1,.13-.35,23.91,23.91,0,0,0,7.23-5A.27.27,0,0,1,28.7,8.78ZM26.16,6.55A21.05,21.05,0,0,1,19.67,11a.28.28,0,0,1-.35-.12,53.39,53.39,0,0,0-4.68-7.19.27.27,0,0,1,.16-.43,14.92,14.92,0,0,1,2.51-.22,14.2,14.2,0,0,1,8.83,3.07A.28.28,0,0,1,26.16,6.55Zm-14.77-2a49,49,0,0,1,5,7.32.26.26,0,0,1-.15.39A51.18,51.18,0,0,1,3.83,14a.27.27,0,0,1-.28-.33,14.31,14.31,0,0,1,7.52-9.16A.28.28,0,0,1,11.39,4.59Zm-8,12.52A53.35,53.35,0,0,0,17.73,15a.27.27,0,0,1,.32.14c.27.57.54,1.16.8,1.77a.26.26,0,0,1-.16.36c-4.49,1.46-8.5,4.43-12.07,8.93a.28.28,0,0,1-.41,0,13.46,13.46,0,0,1-3.13-8.87A.27.27,0,0,1,3.34,17.11ZM8.83,28.39c3.3-4.23,6.93-6.95,11-8.23a.27.27,0,0,1,.33.17,53.91,53.91,0,0,1,2.52,9.93.28.28,0,0,1-.16.29A14.19,14.19,0,0,1,8.88,28.77.27.27,0,0,1,8.83,28.39Zm16.7.06a57.87,57.87,0,0,0-2.28-8.67.27.27,0,0,1,.23-.35,23.78,23.78,0,0,1,7.55.51.28.28,0,0,1,.21.32A14.31,14.31,0,0,1,26,28.62.27.27,0,0,1,25.53,28.45Z"/></svg>