<svg id="Design" xmlns="http://www.w3.org/2000/svg" viewBox="0 0 36.82 34.75"><defs><style>.cls-1{fill:#fff;}</style></defs><title>Social icons</title><path class="cls-1" d="M0,34.55l14.24-15.4L0,.15c.44,0,.73-.1,1-.1C4,.05,7,.07,10,0a1.72,1.72,0,0,1,1.6.81c2.57,3.49,5.18,7,7.79,10.44.28.38.58.75.94,1.21.29-.28.56-.5.79-.75q4.63-5,9.27-10c1.76-1.9,1.76-1.9,4.68-1.58L21.8,14.51l15,20.08c-.56,0-.93.09-1.3.09-2.81,0-5.63,0-8.44,0a2.15,2.15,0,0,1-2-1c-2.83-3.86-5.71-7.68-8.58-11.51l-1-1.27A7.7,7.7,0,0,1,14.83,22Q9.73,27.55,4.59,33.08C2.88,34.92,2.82,34.94,0,34.55Zm32-2.24a4.44,4.44,0,0,0-.21-.49Q21,17.39,10.17,3c-.16-.21-.41-.49-.62-.49-1.53,0-3.06,0-4.71,0A4.77,4.77,0,0,0,5.13,3Q15.87,17.36,26.64,31.72c.18.24.46.56.71.56C28.85,32.34,30.36,32.31,32,32.31Z"/></svg>