<svg id="Design" xmlns="http://www.w3.org/2000/svg" viewBox="0 0 37.6 35.39"><defs><style>.cls-1{fill:#fff;}</style></defs><title>Social icons</title><path class="cls-1" d="M0,27.57V27a1.52,1.52,0,0,1,.89-.59C4,25.78,6,23.81,7.59,21.23c1.31-2.17,1.1-2.67-1.31-3.52-.14-.05-.28-.09-.42-.15a5.29,5.29,0,0,1-1.47-.81c-1.08-.94-.44-2.29.84-2.6.93-.23,1.74.37,2.64.49.61.07.85-.13.77-.78a31.84,31.84,0,0,1-.11-5,8.45,8.45,0,0,1,4.35-7.15,11,11,0,0,1,11.78,0A8.43,8.43,0,0,1,29,8.16a28.73,28.73,0,0,1,0,5.64c-.06.81.1,1,.91.77,1-.23,1.84-.75,2.89-.29a1.59,1.59,0,0,1,1,1.38,1.55,1.55,0,0,1-.56,1.08,6,6,0,0,1-1.7.88c-.45.19-.92.33-1.36.54-.91.42-1.17,1-.75,1.89,1.48,3.12,3.65,5.49,7.15,6.31a1.65,1.65,0,0,1,1,.62v.59A2.73,2.73,0,0,1,36,28.89a7.37,7.37,0,0,1-2.11.59,1.62,1.62,0,0,0-1.71,1.57c-.14,1-.45,1.15-1.47,1.07-.25,0-.49-.07-.73-.11a6.53,6.53,0,0,0-5.55,1.18,12.51,12.51,0,0,1-1,.71,7.72,7.72,0,0,1-8.64.32c-.8-.47-1.56-1-2.34-1.52a5.27,5.27,0,0,0-2.11-.77,13.41,13.41,0,0,0-3.58.22c-.61.07-1.19-.11-1.23-.74-.08-1.52-1-1.89-2.29-2a6.82,6.82,0,0,1-1.75-.54A2.57,2.57,0,0,1,0,27.57Z"/></svg>