<svg id="Design" xmlns="http://www.w3.org/2000/svg" viewBox="0 0 30.21 28.86"><defs><style>.cls-1{fill:#fff;}</style></defs><title>Social icons</title><path class="cls-1" d="M30.21,17.7V28.38a.48.48,0,0,1-.47.48H24.22a.48.48,0,0,1-.47-.48V18.45c0-2.62-.94-4.4-3.28-4.4a3.54,3.54,0,0,0-3.32,2.36A4.48,4.48,0,0,0,16.94,18V28.38a.49.49,0,0,1-.48.48H11a.48.48,0,0,1-.48-.48c0-2.65.07-15.48,0-18.5A.48.48,0,0,1,11,9.4h5.5a.48.48,0,0,1,.48.48v2.28l-.05.06h.05v-.06a6.41,6.41,0,0,1,5.83-3.22c4.25,0,7.44,2.78,7.44,8.76ZM.9,28.86H6.41a.48.48,0,0,0,.48-.48V9.88a.47.47,0,0,0-.48-.48H.9a.48.48,0,0,0-.48.48v18.5A.49.49,0,0,0,.9,28.86Z"/><path class="cls-1" d="M6.93,3.46A3.47,3.47,0,1,1,3.46,0,3.47,3.47,0,0,1,6.93,3.46Z"/></svg>