<?xml version="1.0" encoding="utf-8"?>
<!-- Generator: Adobe Illustrator 23.0.6, SVG Export Plug-In . SVG Version: 6.00 Build 0)  -->
<svg version="1.1" xmlns="http://www.w3.org/2000/svg" xmlns:xlink="http://www.w3.org/1999/xlink" x="0px" y="0px"
	 viewBox="0 0 914.49 989.93" style="enable-background:new 0 0 914.49 989.93;" xml:space="preserve">
<style type="text/css">
	.st0{fill:#FFFFFF;}
	.st1{fill-rule:evenodd;clip-rule:evenodd;fill:#FFFFFF;}
	.st2{fill-rule:evenodd;clip-rule:evenodd;fill:#FFEC00;}
</style>
<g id="OBJECTS">
</g>
<g id="BACKGROUND">
	<g>
		<g>
			<g>
				<path class="st0" d="M5.07,940.34h7.92v7.5H5.07V940.34z M5.07,954.02h7.92v35.91H5.07V954.02z"/>
				<path class="st0" d="M59.64,954.09H82.7c6.76,0,11.86,1.55,15.31,4.65c3.45,3.1,5.17,7.46,5.17,13.06c0,3.38-0.7,6.4-2.09,9.06
					c-1.39,2.67-3.33,4.76-5.83,6.28c-1.76,1.07-3.85,1.8-6.28,2.19c-2.43,0.39-5.24,0.59-8.44,0.59h-20.9V954.09z M78.74,983.19
					c2.64,0,4.95-0.18,6.94-0.55c1.99-0.37,3.65-1,4.97-1.88c1.32-0.88,2.3-2.06,2.95-3.54c0.65-1.48,0.97-3.33,0.97-5.55
					c0-3.66-0.98-6.44-2.95-8.33c-1.97-1.9-4.92-2.85-8.86-2.85H67.97v22.71H78.74z"/>
				<path class="st0" d="M164.46,954.09h36.67v6.11h-28.34v7.99h16.53v6.11h-16.53v8.89h28.68v6.74h-37.02V954.09z"/>
				<path class="st0" d="M276.29,954.09h8.06l20.56,35.84h-9.38l-4.31-7.85h-22.71l-4.17,7.85h-8.33L276.29,954.09z M287.75,975.63
					l-7.71-14.59l-7.99,14.59H287.75z"/>
				<path class="st0" d="M368.68,960.35v7.71h22.36c1.67,0,3.08,0.13,4.24,0.38c1.16,0.25,2.08,0.69,2.78,1.32
					c0.7,0.62,1.19,1.49,1.49,2.6c0.3,1.11,0.45,2.5,0.45,4.17v4.93c0,1.67-0.15,3.06-0.45,4.17c-0.3,1.11-0.8,1.98-1.49,2.6
					c-0.7,0.63-1.62,1.07-2.78,1.32c-1.16,0.26-2.57,0.38-4.24,0.38h-22.16c-1.67,0-3.08-0.12-4.24-0.38
					c-1.16-0.25-2.08-0.69-2.78-1.32c-0.7-0.62-1.19-1.49-1.5-2.6c-0.3-1.11-0.45-2.5-0.45-4.17v-0.97l7.36-1.53v4.24h25.35V975
					h-22.36c-1.67,0-3.07-0.12-4.2-0.38c-1.13-0.25-2.05-0.7-2.74-1.32c-0.7-0.63-1.19-1.5-1.49-2.61c-0.3-1.11-0.45-2.5-0.45-4.16
					v-3.96c0-1.67,0.15-3.06,0.45-4.17c0.3-1.11,0.8-1.98,1.49-2.6c0.7-0.63,1.61-1.07,2.74-1.32c1.14-0.25,2.54-0.38,4.2-0.38
					h20.35c1.62,0,2.99,0.11,4.1,0.35c1.11,0.23,2.03,0.65,2.74,1.25c0.72,0.61,1.24,1.42,1.56,2.43c0.32,1.02,0.48,2.29,0.48,3.82
					v0.76l-7.36,1.74v-4.09H368.68z"/>
				<path class="st0" d="M529.18,954.09h8.06l20.56,35.84h-9.38l-4.31-7.85H521.4l-4.17,7.85h-8.33L529.18,954.09z M540.63,975.63
					l-7.71-14.59l-7.99,14.59H540.63z"/>
				<path class="st0" d="M615.31,954.09h8.33v29.1h26.88v6.74h-35.21V954.09z"/>
				<path class="st0" d="M708.74,954.09h8.33v35.84h-8.33V954.09z"/>
				<path class="st0" d="M772.79,954.09h9.52L796.83,980l13.82-25.91h8.33l-19.72,35.84h-5.76L772.79,954.09z"/>
				<path class="st0" d="M874.7,954.09h36.67v6.11h-28.34v7.99h16.53v6.11h-16.53v8.89h28.68v6.74H874.7V954.09z"/>
			</g>
			<g>
				<path class="st0" d="M7.23,823.34h14.09l35.3,45.32l34.57-45.32h13.95v74.95H89.01v-46.34c0-0.77,0.05-1.82,0.14-3.13
					c0.1-1.3,0.24-2.93,0.44-4.86c-0.78,1.64-1.53,3.15-2.25,4.5c-0.73,1.36-1.43,2.47-2.11,3.34l-28.18,37.48h-3.49l-28.18-37.62
					c-0.87-1.16-1.7-2.37-2.47-3.63c-0.78-1.26-1.45-2.62-2.03-4.07c0.29,3,0.44,5.66,0.44,7.99v46.34H7.23V823.34z"/>
				<path class="st0" d="M170.01,852.11h33.84v14.96h-33.84V852.11z"/>
				<path class="st0" d="M270.47,823.34h17.43v74.95h-17.43V823.34z"/>
				<path class="st0" d="M366.57,823.34h48.23c14.14,0,24.81,3.24,32.03,9.73c7.21,6.49,10.82,15.59,10.82,27.31
					c0,7.07-1.45,13.39-4.36,18.96c-2.91,5.57-6.97,9.95-12.2,13.15c-3.68,2.23-8.06,3.75-13.15,4.58
					c-5.08,0.82-10.97,1.23-17.65,1.23h-43.72V823.34z M406.51,884.21c5.52,0,10.36-0.38,14.52-1.16c4.16-0.77,7.63-2.08,10.39-3.92
					c2.76-1.84,4.82-4.31,6.17-7.41c1.36-3.1,2.03-6.97,2.03-11.62c0-7.65-2.06-13.46-6.17-17.43c-4.12-3.97-10.29-5.95-18.52-5.95
					H384v47.5H406.51z"/>
				<path class="st0" d="M529.92,823.34h76.7v12.78h-59.26v16.71h34.57v12.78h-34.57v18.59h59.99v14.09h-77.42V823.34z"/>
				<path class="st0" d="M707.95,823.34h16.85l42.99,74.95h-19.61l-9-16.41h-47.5l-8.72,16.41h-17.43L707.95,823.34z M731.91,868.38
					l-16.12-30.5l-16.7,30.5H731.91z"/>
				<path class="st0" d="M845.3,836.42v16.12h46.77c3.49,0,6.44,0.27,8.86,0.8c2.42,0.54,4.36,1.45,5.81,2.76
					c1.45,1.31,2.49,3.13,3.12,5.45c0.63,2.33,0.94,5.23,0.94,8.72v10.31c0,3.48-0.31,6.39-0.94,8.71
					c-0.63,2.33-1.67,4.14-3.12,5.45c-1.45,1.31-3.39,2.23-5.81,2.76c-2.42,0.54-5.38,0.8-8.86,0.8h-46.33
					c-3.49,0-6.44-0.27-8.86-0.8c-2.42-0.53-4.36-1.45-5.81-2.76c-1.45-1.31-2.49-3.12-3.12-5.45c-0.63-2.33-0.94-5.23-0.94-8.71
					v-2.03l15.4-3.2v8.86h53.02v-17.14h-46.77c-3.49,0-6.41-0.27-8.79-0.8c-2.37-0.53-4.29-1.45-5.74-2.76s-2.49-3.13-3.12-5.45
					c-0.63-2.33-0.94-5.23-0.94-8.72v-8.27c0-3.49,0.31-6.39,0.94-8.72c0.63-2.33,1.67-4.14,3.12-5.45
					c1.45-1.31,3.36-2.23,5.74-2.76c2.37-0.53,5.3-0.8,8.79-0.8h42.56c3.39,0,6.25,0.24,8.57,0.72c2.33,0.49,4.24,1.36,5.74,2.62
					c1.5,1.26,2.59,2.95,3.27,5.08c0.68,2.13,1.02,4.79,1.02,7.99v1.6l-15.4,3.63v-8.57H845.3z"/>
			</g>
		</g>
		<g>
			<g>
				<path class="st1" d="M464.42,12.42l442.9,767.12l7.18,12.43h-14.35H14.35H0l7.17-12.43l442.9-767.12L457.24,0L464.42,12.42
					L464.42,12.42z M885.8,775.36L457.24,33.08L28.69,775.36H885.8z"/>
			</g>
			<g>
				<g>
					<g>
						<path class="st2" d="M816.47,398.13C792.6,414.98,561.51,586.92,554.38,583.2c-14.51-9.55,172.11-270.28,201.6-307.1
							c9.55-13.14,33.03-42.49,16.63-49.94c-20.98-6.38-70.63-0.52-87.85,13.36c-2.73,2.19-5.18,4.65-7.3,7.39
							c-11.18,14.45-22.11,29.8-33.09,44.51c-33.56,39.16-67.13,78.31-100.69,117.47c-16.99,19.83-33.99,39.65-50.98,59.48
							c-16.57,19.33-33.14,38.66-49.71,57.99c-27.19,31.72-54.38,63.44-81.57,95.16c-1-9.11,172.88-263.69,194.49-295.51
							c1.44-2.12,7.26-10.43,12.94-19.2c11.72-18.12,18.8-30.57-10.88-30.88c-15.69-0.17-36.93,5.28-48.73,8.99
							c-16.27,5.11-23.05,13.96-33.92,26.32c-68.86,75.91-123.37,125.94-195.27,200.17c-0.55,0.58-1.12,1.15-1.67,1.72
							c26.18-40.48,55.1-87.61,82.17-131.17c12.97-20.87,27.12-38.53,37.32-58.76c6.03-11.96-4.74-17.3-15.03-16.12
							c-14.81,1.71-41.57,12.1-47.98,14.51c-14.19,5.35-18.4,14.7-25.99,26.82C249.3,451.54,183.31,551.94,123.2,656
							c-14.18,24.55-28.39,49.12-42.21,73.87c-1.74,3.41-3.52,7.31,0.02,10c6.15,4.67,14.09,7.08,21.62,8.35
							c9.86,1.66,19.88,1.58,29.74,0.05c7.12-1.11,14.46-3.63,18.94-9.37c8.95-11.92,17.17-24.99,25.08-37.63
							c53.17-79.5,202.75-246.47,233.83-258.7c-18.93,40.05-127.69,183.31-110.93,216.81c5.6,11.2,14.37,19.98,24.64,26.98
							c9.95,5.76,19.37,4.97,29.26-0.75l230.28-257.2l-4.69,7.5c-9.72,15.56-19.23,31.25-28.6,47.03
							c-9.53,16.06-18.52,32.45-26.81,49.19c-7.22,14.58-13.9,29.54-19.45,44.83c-5.84,16.08-8.92,43.92,9.47,53.63
							c8.09,4.28,16.9,4.92,25.84,3.47c43.4-7.05,68.28-33.59,99.65-61.17C700,519.15,758.54,456.1,816.35,398.29L816.47,398.13z"/>
					</g>
					<g>
						<path class="st2" d="M843.67,370.54c0.22-0.01,0.4,0.16,0.41,0.38c0.01,0.15-0.07,0.29-0.2,0.36l-0.09-0.44l-0.38,0.38
							c-0.07-0.07-0.12-0.16-0.12-0.27C843.29,370.74,843.46,370.55,843.67,370.54z"/>
					</g>
				</g>
				<g>
					<path class="st2" d="M842.83,352.73c10.06-0.48,18.59,7.29,19.07,17.35c0.48,10.06-7.29,18.59-17.35,19.07
						c-10.05,0.48-18.59-7.29-19.07-17.35C825.01,361.74,832.78,353.2,842.83,352.73z"/>
				</g>
			</g>
		</g>
	</g>
</g>
</svg>
