<svg id="Layer_1" data-name="Layer 1" xmlns="http://www.w3.org/2000/svg" viewBox="0 0 4.08 8.82"><defs><style>.cls-1{fill:#f2e30e;}.cls-2{fill:none;}</style></defs><title>o</title><path class="cls-1" d="M8.16,4.41a6.31,6.31,0,0,1-.25,1.8,3.78,3.78,0,0,1-.75,1.4,3.08,3.08,0,0,1-1.27.89,4.72,4.72,0,0,1-1.81.32A4.78,4.78,0,0,1,2.26,8.5,3.21,3.21,0,0,1,1,7.61a3.91,3.91,0,0,1-.74-1.4A6.11,6.11,0,0,1,0,4.39,5.7,5.7,0,0,1,.44,2.08,3.35,3.35,0,0,1,1.78.54,4.49,4.49,0,0,1,4.09,0,4.39,4.39,0,0,1,6.38.54,3.35,3.35,0,0,1,7.72,2.08,5.76,5.76,0,0,1,8.16,4.41Zm-6.26,0A4.71,4.71,0,0,0,2.13,6a2.06,2.06,0,0,0,.71,1,2.07,2.07,0,0,0,1.24.34A2.1,2.1,0,0,0,5.33,7,2,2,0,0,0,6,6a4.73,4.73,0,0,0,.22-1.54,3.89,3.89,0,0,0-.5-2.12,1.83,1.83,0,0,0-1.66-.78,2.1,2.1,0,0,0-1.25.35,2,2,0,0,0-.71,1A4.69,4.69,0,0,0,1.9,4.41Z"/><rect class="cls-2" y="-0.16" width="4.08" height="9.53"/></svg>